<svg width="528" height="196" viewBox="0 0 528 196" fill="none" xmlns="http://www.w3.org/2000/svg">
<path d="M2.5 16.5C2.5 8.768 8.76801 2.5 16.5 2.5H511.069C518.801 2.5 525.069 8.76801 525.069 16.5V178.628C525.069 186.36 518.801 192.628 511.069 192.628H16.5C8.768 192.628 2.5 186.36 2.5 178.628V16.5Z" fill="white"/>
<path d="M2.5 16.5C2.5 8.768 8.76801 2.5 16.5 2.5H511.069C518.801 2.5 525.069 8.76801 525.069 16.5V178.628C525.069 186.36 518.801 192.628 511.069 192.628H16.5C8.768 192.628 2.5 186.36 2.5 178.628V16.5Z" stroke="#EB4786" stroke-width="5"/>
<g clip-path="url(#clip0_494_2400)">
<path d="M379.696 33.5757H376.558V36.7133C376.558 37.5201 376.917 38.5062 378.531 38.5062H381.668V35.3686C381.668 34.6515 381.399 33.5757 379.696 33.5757Z" fill="#00002D"/>
<path d="M379.427 43.7056H376.917V69.6131C376.917 70.6889 377.634 71.406 378.62 71.4957V71.5853H381.489V45.5882C381.399 44.4228 380.772 43.7056 379.427 43.7056Z" fill="#00002D"/>
<path d="M227.568 63.9655C226.492 62.8897 225.148 63.1586 224.341 63.8758C221.024 66.6548 217.976 67.7306 214.032 67.7306C206.143 67.7306 199.868 61.0968 199.868 52.5805C199.868 44.0642 205.964 37.5201 214.032 37.5201C217.886 37.5201 221.114 38.6855 224.162 41.2852C224.879 41.9127 226.134 42.1817 227.03 41.1956C227.837 40.3888 228.644 39.4923 228.644 39.4923L228.823 39.313L228.644 39.1337C225.417 35.9961 221.383 33.1275 214.032 33.1275C203.364 33.1275 195.117 41.7334 195.117 52.6702C195.117 63.6965 203.185 72.0335 213.942 72.0335C219.948 72.0335 224.341 70.0613 228.823 65.3998L228.913 65.2205L228.823 65.0412C228.823 65.2205 228.554 64.8619 227.568 63.9655Z" fill="#00002D"/>
<path d="M295.698 43.0781C291.754 43.0781 288.616 44.7814 286.196 48.1879C285.12 46.0364 282.61 42.8988 277.411 42.8988C272.929 42.8988 270.508 45.2296 268.715 47.5604V45.5882C268.715 44.2435 267.908 43.4367 266.653 43.4367H264.143V71.3164H266.653C267.908 71.3164 268.626 70.9578 268.626 69.4338V55.5388C268.626 50.698 271.763 47.1122 275.977 47.1122C280.279 47.1122 282.79 50.0704 282.79 55.0906V69.4338C282.79 70.7785 283.507 71.406 284.762 71.406H287.272V55.4492C287.272 49.7119 290.947 47.2018 294.623 47.2018C299.015 47.2018 301.525 50.1601 301.525 55.1802V69.1649C301.525 70.3303 301.794 71.406 303.587 71.406H306.008V54.2838C306.097 47.3811 302.153 43.0781 295.698 43.0781Z" fill="#00002D"/>
<path d="M328.06 43.1678C323.937 43.1678 320.53 44.9607 317.751 48.8154V45.9468C317.751 44.5124 316.944 43.7953 315.51 43.7953H313.269V78.0398C313.269 79.3844 313.896 80.012 315.241 80.012H317.751V66.7445C320.53 70.3303 323.847 72.1232 328.06 72.1232C334.515 72.1232 341.328 67.0134 341.328 57.6006C341.328 48.1879 334.515 43.1678 328.06 43.1678ZM336.666 57.6006C336.666 63.6965 332.812 67.9098 327.254 67.9098C322.502 67.9098 317.572 63.9655 317.572 57.511C317.572 51.0565 322.502 47.1122 327.254 47.1122C331.915 47.2018 336.666 50.7876 336.666 57.6006Z" fill="#00002D"/>
<path d="M410.982 45.6778V48.0086C409.1 45.5882 405.783 42.8988 400.494 42.8988C397.177 42.8988 393.86 44.1539 391.44 46.395C388.84 48.8154 387.405 52.3116 387.405 56.0767C387.405 64.593 394.129 69.1649 400.494 69.1649C404.617 69.1649 408.114 67.4616 411.072 63.8758V66.5652C411.072 72.661 407.486 76.1572 401.39 76.1572C398.432 76.1572 395.563 75.44 392.874 73.9161C392.157 73.4678 391.619 73.2886 391.171 73.2886C390.633 73.2886 390.095 73.5575 389.736 74.185C389.019 75.3504 388.75 75.8883 388.75 75.8883L388.661 76.0676L388.84 76.1572C392.515 78.7569 396.729 80.012 401.39 80.012C410.355 80.012 415.554 75.0815 415.554 66.4755V43.616H413.044C412.237 43.616 410.982 44.3332 410.982 45.6778ZM411.251 56.3456C411.251 62.0829 406.231 65.4894 401.39 65.4894C396.101 65.4894 392.157 61.545 392.157 56.3456C392.157 51.0565 396.101 47.2914 401.39 47.2914C406.141 47.2018 411.251 50.3394 411.251 56.3456Z" fill="#00002D"/>
<path d="M436.71 43.1678C432.766 43.1678 429.718 44.7814 427.567 48.0086V45.6778C427.567 44.3332 426.491 43.7953 425.415 43.7953H422.905V71.6749H427.477L427.387 55.7181C427.387 50.7876 430.704 47.3811 435.455 47.3811C440.117 47.3811 442.806 50.3394 442.806 55.4492V69.7924C442.806 71.1371 443.434 71.6749 444.599 71.6749H447.289V54.2838C447.378 47.4707 443.254 43.1678 436.71 43.1678Z" fill="#00002D"/>
<path d="M358.181 43.2574C354.685 43.2574 351.547 43.9746 348.141 45.4985L347.962 45.5882L348.051 45.7675C348.051 45.7675 348.499 47.0225 348.858 47.919C349.217 48.8154 350.292 48.9051 351.099 48.5465C353.43 47.65 355.492 47.2018 357.823 47.2018C362.932 47.2018 365.711 49.8015 365.711 54.4631V61.1865C365.711 65.3998 361.946 68.3581 356.747 68.3581C353.52 68.3581 350.023 66.7445 350.023 63.1587C350.023 59.7521 352.802 57.8696 357.823 57.8696H360.064C361.408 57.8696 362.036 57.2421 362.036 55.987V54.4631H357.374C349.755 54.4631 345.452 57.6903 345.452 63.2483C345.452 67.4616 348.679 72.1232 355.94 72.1232C359.884 72.1232 363.201 70.5992 365.622 67.7306V69.6131C365.622 70.8681 366.249 71.406 367.594 71.406H370.104V54.3734C370.014 47.2914 365.801 43.2574 358.181 43.2574Z" fill="#00002D"/>
<path d="M245.318 43.2574C241.015 43.2574 237.967 44.3332 235.278 45.4985L235.098 45.6778L235.188 45.8571C235.188 45.8571 235.636 47.1122 235.995 48.0086C236.353 48.9051 237.429 48.9947 238.236 48.6361C240.567 47.7397 242.628 47.2914 244.959 47.2914C250.069 47.2914 252.938 49.8912 252.938 54.5527V61.1865C252.938 65.3998 249.173 68.3581 243.973 68.3581C240.746 68.3581 237.339 66.7445 237.339 63.1587C237.339 59.7521 240.118 57.8696 245.049 57.8696H247.29C248.635 57.8696 249.262 57.2421 249.262 55.987V54.4631H244.69C237.07 54.4631 232.678 57.6903 232.678 63.2483C232.678 67.4616 235.905 72.1232 243.077 72.1232C247.021 72.1232 250.338 70.5992 252.848 67.7306V69.6131C252.848 70.8681 253.476 71.406 254.731 71.406H257.241V54.3734C257.151 47.2914 252.938 43.2574 245.318 43.2574Z" fill="#00002D"/>
<path d="M493.456 53.6563C492.828 53.1184 467.279 35.279 466.114 34.5618L465.755 34.2929V38.6855C465.755 40.1198 466.473 40.5681 467.369 41.2852L467.548 41.3749C468.803 42.2713 487.001 54.9113 489.422 56.6145C487.001 58.3178 468.534 71.1371 467.369 71.8542C465.935 72.7507 465.845 73.3782 465.845 74.6332V78.8466C465.845 78.8466 493.008 59.9314 493.545 59.4832C494.801 58.5867 495.069 57.4214 495.069 56.7042V56.1663C495.069 55.2699 494.532 54.3734 493.456 53.6563Z" fill="#00002D"/>
<path d="M477.499 58.5867C478.216 58.5867 478.933 58.3178 479.65 57.7799C480.547 57.1524 481.354 56.6145 481.354 56.6145L481.623 56.4353L481.354 56.256C481.264 56.1663 469.341 47.919 468.086 47.1122C467.548 46.6639 466.831 46.5743 466.383 46.8432C465.935 47.1122 465.576 47.5604 465.576 48.2775V51.0565L465.666 51.1462C465.755 51.2358 473.913 56.8835 475.527 57.9592C476.244 58.4075 476.871 58.5867 477.499 58.5867Z" fill="#00002D"/>
<path d="M97.3136 65.1308C96.3275 64.1447 95.0724 64.7723 94.5346 65.2205C92.4727 67.103 90.142 67.9995 87.6319 67.9995C82.1635 67.9995 77.8606 63.4276 77.8606 57.511C77.8606 51.6841 82.0739 47.1122 87.3629 47.1122C90.4109 47.1122 92.3831 48.4568 93.9967 49.7119C95.1621 50.698 96.1482 50.7876 96.955 49.8912C97.6721 49.174 98.479 48.2775 98.479 48.2775L98.6582 48.0983L98.479 47.919C95.3414 44.5124 91.8452 42.9885 87.3629 42.9885C79.3845 42.9885 73.0197 49.3533 73.0197 57.511C73.0197 65.4894 79.4742 72.0335 87.3629 72.0335C93.1899 72.0335 96.5068 69.0752 98.6582 66.5652H98.8375L98.6582 66.3859C98.6582 66.3859 98.21 66.0273 97.3136 65.1308Z" fill="#00002D"/>
<path d="M127.076 33.5757H123.938V36.7133C123.938 37.5201 124.297 38.5062 125.91 38.5062H129.048V35.7272C129.138 34.4722 128.331 33.5757 127.076 33.5757Z" fill="#00002D"/>
<path d="M126.717 43.7056H124.117V69.6131C124.117 70.6889 124.835 71.406 125.821 71.4957V71.5853H128.689V45.5882C128.779 44.4228 128.062 43.7056 126.717 43.7056Z" fill="#00002D"/>
<path d="M156.21 45.2296C155.852 46.2157 149.039 62.7104 147.694 65.7584C146.439 62.6208 139.626 46.1261 139.268 45.2296C138.819 44.1539 137.923 43.5263 136.757 43.5263H133.53L133.71 43.7953C133.799 44.1539 144.646 69.1649 145.094 70.151C145.543 71.3164 146.26 71.5853 147.425 71.5853H147.963C149.039 71.5853 149.756 71.1371 150.204 70.151C150.652 69.1649 161.5 44.3332 161.589 44.0642L161.768 43.7056H158.631C157.465 43.7056 156.659 44.1539 156.21 45.2296Z" fill="#00002D"/>
<path d="M184.269 55.987H173.602C172.436 55.987 171.719 56.7042 171.719 57.8696V59.6625H171.988C177.098 59.5728 183.014 59.5728 185.435 59.5728C186.869 59.5728 187.945 59.2143 188.752 58.4075C189.469 57.6006 189.827 56.3456 189.738 54.9113C188.931 47.7397 183.821 43.0781 176.829 43.0781C169.209 43.0781 163.382 49.3533 163.382 57.6006C163.382 65.9377 169.388 72.1232 177.367 72.1232C182.028 72.1232 185.524 70.5096 188.841 66.9238L189.021 66.7445L188.841 66.5652C188.841 66.5652 188.214 66.0273 187.497 65.3998C186.421 64.5033 185.435 64.8619 184.897 65.3998C182.925 67.1927 180.504 68.0891 177.546 68.0891C172.436 68.0891 168.671 64.4137 168.044 58.9453C168.044 58.9453 167.954 58.3178 167.954 57.511C167.954 56.6145 168.044 55.987 168.044 55.987C168.582 50.6083 172.167 46.8432 176.739 46.8432C181.311 46.8432 184.628 49.8912 185.076 54.5527C185.166 55.0009 185.076 55.3595 184.987 55.5388C184.718 55.8974 184.538 55.987 184.269 55.987Z" fill="#00002D"/>
<path d="M55.3596 35.0101C54.8217 33.9343 54.1942 33.5757 53.0288 33.5757H51.9531C51.0566 33.5757 50.2498 34.1136 49.8016 34.9204C49.443 35.7272 33.6655 70.8681 33.4862 71.2267L33.3069 71.5853H36.2652C37.5202 71.5853 38.327 71.0474 38.9545 69.7924C39.4924 68.7167 42.0921 62.8001 42.5403 61.814H54.1046C55.5389 61.814 56.4354 60.9175 56.4354 59.5728V57.6006H44.3332L52.491 39.313C54.1942 43.0781 65.5792 69.0752 66.117 70.151C66.8342 71.5853 68.5375 71.5853 69.0753 71.5853H71.7647L71.5854 71.2267C71.5854 70.8681 55.8975 36.1754 55.3596 35.0101Z" fill="#00002D"/>
<path d="M117.484 67.5513C117.036 67.2823 116.408 67.1927 115.78 67.372C114.794 67.6409 114.077 67.8202 113.181 67.8202C110.312 67.8202 108.788 66.3859 108.788 63.4276V47.7397H117.484V45.8571C117.484 44.4228 116.229 43.7056 115.153 43.7056H108.699V35.8169C108.699 34.5618 107.802 33.6654 106.457 33.6654H104.216V64.0551C104.216 69.1649 106.995 72.0335 112.195 72.0335C114.167 72.0335 116.408 71.5853 117.842 70.8681L117.932 70.7785V70.6888C117.932 70.6888 118.022 69.882 118.022 68.8959C118.111 68.1788 117.753 67.8202 117.484 67.5513Z" fill="#00002D"/>
</g>
<rect x="34.355" y="97.8669" width="350.599" height="62.9059" rx="31.4529" stroke="#EB4786" stroke-width="3.70997"/>
<path d="M78.1805 125.476H73.0281C72.4381 120.481 69.6455 117.885 65.909 117.885C61.5826 117.885 58.7114 121.307 58.7114 127.954C58.7114 134.601 61.5826 138.023 65.909 138.023C69.7242 138.023 72.5167 135.309 73.0281 130.156H78.1805C77.4725 137.905 72.5561 142.231 65.8304 142.231C58.3967 142.231 53.3623 137.157 53.3623 127.954C53.3623 118.75 58.436 113.676 65.8697 113.676C72.4774 113.676 77.4725 117.845 78.1805 125.476ZM91.1184 142.231C84.9827 142.231 80.8136 138.023 80.8136 131.061C80.8136 124.139 85.0614 119.812 91.1578 119.812C96.9395 119.812 101.266 123.903 101.266 131.14V131.533H85.7693C85.9267 136.135 87.9719 138.613 91.1578 138.613C93.7537 138.613 95.5629 136.961 96.2709 133.735H101.03C100.086 139.085 96.4675 142.231 91.1184 142.231ZM91.1184 123.431C88.4832 123.431 86.5953 125.24 85.966 128.544H96.2315C95.5629 125.2 93.7143 123.431 91.1184 123.431ZM104.244 141.72V120.363H109.278V123.745C110.655 121.346 112.857 120.009 115.689 120.009H116.201V124.61C115.689 124.532 115.178 124.492 114.667 124.492C112.425 124.492 110.34 125.397 109.278 127.128V141.72H104.244ZM128.77 141.72C125.308 141.72 123.656 139.989 123.656 136.843V124.06H118.622V120.363H123.656V116.115H128.612V120.363H134.866V124.06H128.612V135.938C128.612 137.354 129.359 137.983 131.09 137.983H134.866V141.72H128.77ZM137.716 118.593V114.306H142.75V118.593H137.716ZM137.716 141.72V120.363H142.75V141.72H137.716ZM150.363 141.72V124.06H145.564V120.363H150.363V118.435C150.363 115.053 151.975 113.362 155.712 113.362H161.061V116.783H157.442C155.908 116.783 155.318 117.373 155.318 118.711V120.363H161.061V124.06H155.318V141.72H150.363ZM163.89 118.593V114.306H168.924V118.593H163.89ZM163.89 141.72V120.363H168.924V141.72H163.89ZM182.2 142.231C176.065 142.231 171.895 138.023 171.895 131.061C171.895 124.139 176.143 119.812 182.24 119.812C188.021 119.812 192.348 123.903 192.348 131.14V131.533H176.851C177.008 136.135 179.054 138.613 182.24 138.613C184.835 138.613 186.645 136.961 187.353 133.735H192.112C191.168 139.085 187.549 142.231 182.2 142.231ZM182.2 123.431C179.565 123.431 177.677 125.24 177.048 128.544H187.313C186.645 125.2 184.796 123.431 182.2 123.431ZM204.289 142.152C198.743 142.152 195.046 137.944 195.046 131.061C195.046 124.256 198.782 119.93 204.289 119.93C207.199 119.93 209.598 121.307 211.132 123.785V114.188H216.167V141.72H211.132V138.337C209.598 140.815 207.199 142.152 204.289 142.152ZM205.547 138.534C208.93 138.534 211.132 135.938 211.132 131.061C211.132 126.144 208.93 123.549 205.547 123.549C202.204 123.549 200.08 126.144 200.08 131.022C200.08 135.938 202.204 138.534 205.547 138.534ZM228.953 141.72V114.188H241.854C247.753 114.188 251.372 117.373 251.372 122.605C251.372 127.757 247.793 130.982 241.932 130.982H234.184V141.72H228.953ZM241.5 118.317H234.184V126.931H241.5C244.45 126.931 246.18 125.476 246.18 122.644C246.18 119.812 244.45 118.317 241.5 118.317ZM260.092 142.074C255.687 142.074 252.934 139.792 252.934 136.292C252.934 132.083 257.339 130.668 261.862 129.291C265.205 128.268 266.818 127.482 266.818 125.908C266.818 124.414 265.48 123.431 263.042 123.431C260.289 123.431 258.479 125.004 258.007 127.639H253.366C253.995 123.037 257.771 119.891 263.16 119.891C268.587 119.891 271.773 122.447 271.773 127.206V141.72H266.818V139.32C265.205 141.09 262.806 142.074 260.092 142.074ZM257.85 136.135C257.85 137.787 259.227 138.691 261.39 138.691C263.435 138.691 265.559 137.865 266.818 136.449V130.55C265.913 131.297 264.497 131.769 262.884 132.319C260.013 133.263 257.85 134.011 257.85 136.135ZM275.213 141.72V120.363H280.248V123.745C281.624 121.346 283.827 120.009 286.659 120.009H287.17V124.61C286.659 124.532 286.148 124.492 285.636 124.492C283.394 124.492 281.31 125.397 280.248 127.128V141.72H275.213ZM299.739 141.72C296.278 141.72 294.626 139.989 294.626 136.843V124.06H289.591V120.363H294.626V116.115H299.582V120.363H305.835V124.06H299.582V135.938C299.582 137.354 300.329 137.983 302.06 137.983H305.835V141.72H299.739ZM308.685 141.72V120.363H313.72V122.841C315.214 121.031 317.417 119.93 320.091 119.93C324.654 119.93 327.643 122.801 327.643 127.167V141.72H322.648V127.954C322.648 125.161 320.917 123.667 318.321 123.667C316.394 123.667 314.703 124.571 313.72 125.948V141.72H308.685ZM340.9 142.231C334.764 142.231 330.595 138.023 330.595 131.061C330.595 124.139 334.843 119.812 340.939 119.812C346.721 119.812 351.048 123.903 351.048 131.14V131.533L335.551 131.533C335.708 136.135 337.754 138.613 340.939 138.613C343.535 138.613 345.345 136.961 346.053 133.735H350.812C349.868 139.085 346.249 142.231 340.9 142.231ZM340.9 123.431C338.265 123.431 336.377 125.24 335.748 128.544L346.013 128.544C345.345 125.2 343.496 123.431 340.9 123.431ZM354.026 141.72V120.363H359.06V123.745C360.437 121.346 362.639 120.009 365.471 120.009H365.982V124.61C365.471 124.532 364.96 124.492 364.448 124.492C362.207 124.492 360.122 125.397 359.06 127.128V141.72H354.026Z" fill="#EB4786"/>
<defs>
<clipPath id="clip0_494_2400">
<rect width="462.569" height="47.512" fill="white" transform="translate(32.5 32.5)"/>
</clipPath>
</defs>
</svg>
